<svg id="SvgjsSvg1011" width="288" height="288" xmlns="http://www.w3.org/2000/svg" version="1.1" xmlns:xlink="http://www.w3.org/1999/xlink" xmlns:svgjs="http://svgjs.com/svgjs"><defs id="SvgjsDefs1012"></defs><g id="SvgjsG1013"><svg xmlns="http://www.w3.org/2000/svg" data-name="Layer 1" viewBox="0 0 24 24" width="288" height="288"><path d="M18.562,14.63379,14.00031,12,18.562,9.36621a1.00016,1.00016,0,0,0-1-1.73242L13,10.26776V5a1,1,0,0,0-2,0v5.26776l-4.562-2.634a1.00016,1.00016,0,0,0-1,1.73242L9.99969,12,5.438,14.63379a1.00016,1.00016,0,0,0,1,1.73242L11,13.73224V19a1,1,0,0,0,2,0V13.73224l4.562,2.634a1.00016,1.00016,0,0,0,1-1.73242Z" fill="#046255" class="color000 svgShape"></path></svg></g></svg>