<?xml version="1.0" encoding="iso-8859-1"?>
<!-- Uploaded to: SVG Repo, www.svgrepo.com, Generator: SVG Repo Mixer Tools -->
<!DOCTYPE svg PUBLIC "-//W3C//DTD SVG 1.1//EN" "http://www.w3.org/Graphics/SVG/1.1/DTD/svg11.dtd">
<svg fill="#000000" version="1.1" id="Capa_1" xmlns="http://www.w3.org/2000/svg" xmlns:xlink="http://www.w3.org/1999/xlink" 
	 width="800px" height="800px" viewBox="0 0 46.347 46.348"
	 xml:space="preserve">
<g>
	<g>
		<path d="M33.542,13.97l5.837,1.654c0.09,0.025,0.183,0.038,0.272,0.038c0.262,0,0.517-0.103,0.707-0.293l5.446-5.445
			c0.251-0.251,0.351-0.615,0.261-0.959c-0.088-0.343-0.354-0.613-0.693-0.71l-5.865-1.664l-1.665-5.865
			c-0.097-0.341-0.367-0.605-0.71-0.694c-0.346-0.088-0.708,0.01-0.959,0.261L30.73,5.739c-0.258,0.256-0.354,0.631-0.256,0.979
			l1.654,5.837l-1.309,1.309c-3.244-2.804-7.457-4.513-12.071-4.513c-10.2,0-18.499,8.298-18.499,18.498s8.299,18.499,18.499,18.499
			s18.497-8.299,18.497-18.499c0-4.868-1.903-9.289-4.987-12.595L33.542,13.97z M39.361,13.54l-4.197-1.189l3.826-3.828l4.197,1.191
			L39.361,13.54z M32.558,6.737l3.825-3.827l1.192,4.198l-2.276,2.276l-1.551,1.551L32.558,6.737z M35.246,27.849
			c0,9.099-7.4,16.499-16.497,16.499c-9.098,0-16.499-7.4-16.499-16.499c0-9.097,7.401-16.498,16.499-16.498
			c4.063,0,7.78,1.482,10.657,3.927l-4.892,4.89c-1.608-1.211-3.602-1.938-5.766-1.938c-5.306,0-9.622,4.315-9.622,9.619
			c0,5.306,4.316,9.62,9.622,9.62c5.303,0,9.616-4.314,9.616-9.62c0-2.419-0.903-4.627-2.385-6.319l4.863-4.862
			C33.568,19.61,35.246,23.532,35.246,27.849z M20.653,27.849c0,1.05-0.854,1.904-1.904,1.904c-1.051,0-1.905-0.854-1.905-1.904
			s0.854-1.903,1.905-1.903C19.798,25.944,20.653,26.799,20.653,27.849z M20.374,24.309c-0.497-0.229-1.044-0.365-1.625-0.365
			c-2.153,0-3.905,1.751-3.905,3.904c0,2.153,1.752,3.904,3.905,3.904c2.153,0,3.904-1.751,3.904-3.904
			c0-0.844-0.275-1.62-0.731-2.26l2.646-2.646c1.119,1.326,1.797,3.037,1.797,4.905c0,4.202-3.417,7.62-7.616,7.62
			c-4.203,0-7.622-3.418-7.622-7.62c0-4.201,3.419-7.619,7.622-7.619c1.612,0,3.106,0.507,4.339,1.365L20.374,24.309z"/>
	</g>
</g>
</svg>